<?xml version="1.0" encoding="UTF-8"?>
<svg xmlns="http://www.w3.org/2000/svg" viewBox="0 0 500 500">
  <defs>
    <style>
      .cls-1 {
        fill: #f28f36;
      }

      .cls-1, .cls-2, .cls-3, .cls-4, .cls-5, .cls-6, .cls-7, .cls-8 {
        stroke: #263238;
        stroke-linecap: round;
        stroke-linejoin: round;
      }

      .cls-9 {
        fill: #e2c293;
      }

      .cls-10 {
        opacity: .7;
      }

      .cls-10, .cls-3, .cls-5 {
        fill: #fff;
      }

      .cls-2 {
        fill: #92e3a9;
      }

      .cls-4 {
        fill: none;
      }

      .cls-5 {
        stroke-width: .5px;
      }

      .cls-6, .cls-11 {
        fill: #263238;
      }

      .cls-7 {
        fill: #c7c7c7;
      }

      .cls-8 {
        fill: #919191;
      }
    </style>
  </defs>
  <g id="Background_Simple" data-name="Background Simple">
    <g>
      <path class="cls-9" d="M452.28,118.76c-1.66-2.76-3.38-5.47-5.19-8.12-24-35.26-63.95-59.4-102.77-70.33-17.01-4.8-34.47-7.31-51.9-7.95-114.34-4.15-156.35,90.12-193.19,114.43C62.39,171.1,5.85,212.62,12.95,299.84c5.38,66.32,43.11,129.73,112.01,158.58,7.59,3.19,15.56,5.96,23.91,8.25,15.53,4.27,32.36,6.96,50.5,7.76,52.09,2.32,94.39-10.24,135.76-41.86,9.62-7.35,19.18-15.64,31.66-16.55,9.07-.66,17.67,2.6,8.19,11.37-11.14,10.3,1.71,30.57,30.01,16.49,47.25-23.52,66.69-74.26,75.85-125.85,11.24-63.33,5.79-142.09-28.56-199.27Z"/>
      <path class="cls-10" d="M452.28,118.76c-1.66-2.76-3.38-5.47-5.19-8.12-24-35.26-63.95-59.4-102.77-70.33-17.01-4.8-34.47-7.31-51.9-7.95-114.34-4.15-156.35,90.12-193.19,114.43C62.39,171.1,5.85,212.62,12.95,299.84c5.38,66.32,43.11,129.73,112.01,158.58,7.59,3.19,15.56,5.96,23.91,8.25,15.53,4.27,32.36,6.96,50.5,7.76,52.09,2.32,94.39-10.24,135.76-41.86,9.62-7.35,19.18-15.64,31.66-16.55,9.07-.66,17.67,2.6,8.19,11.37-11.14,10.3,1.71,30.57,30.01,16.49,47.25-23.52,66.69-74.26,75.85-125.85,11.24-63.33,5.79-142.09-28.56-199.27Z"/>
    </g>
  </g>
  <g id="Clouds">
    <path class="cls-4" d="M432.77,136.64s-5.25-21.87-35.86-26.24c-30.61-4.37-34.99,21.87-41.11,25.37-6.12,3.5-9.62-6.12-19.24-5.25-9.62,.87-14.87,8.75-19.24,12.25s-12.25-7-18.37-5.25-11.37,10.5-11.37,10.5h177.56s-6.12-9.62-14.87-13.12c-8.75-3.5-12.25,1.75-17.49,1.75Z"/>
    <path class="cls-4" d="M137.99,202.3s-3.76-15.67-25.71-18.81c-21.94-3.13-25.08,15.67-29.47,18.18-4.39,2.51-6.9-4.39-13.79-3.76-6.9,.63-10.66,6.27-13.79,8.78s-8.78-5.02-13.17-3.76-8.15,7.52-8.15,7.52h127.28s-4.39-6.9-10.66-9.4c-6.27-2.51-8.78,1.25-12.54,1.25Z"/>
    <path class="cls-4" d="M195.21,69.85s-2.38-9.93-16.29-11.92c-13.9-1.99-15.89,9.93-18.67,11.52-2.78,1.59-4.37-2.78-8.74-2.38-4.37,.4-6.75,3.97-8.74,5.56s-5.56-3.18-8.34-2.38-5.16,4.77-5.16,4.77h80.65s-2.78-4.37-6.75-5.96c-3.97-1.59-5.56,.79-7.95,.79Z"/>
  </g>
  <g id="Sun">
    <g>
      <circle class="cls-4" cx="309.45" cy="67.34" r="22.98"/>
      <g>
        <line class="cls-4" x1="309.45" y1="28.77" x2="309.45" y2="38.12"/>
        <line class="cls-4" x1="309.45" y1="98.12" x2="309.45" y2="107.47"/>
      </g>
      <g>
        <line class="cls-4" x1="337.27" y1="40.3" x2="330.66" y2="46.91"/>
        <line class="cls-4" x1="288.23" y1="89.33" x2="281.62" y2="95.94"/>
      </g>
      <g>
        <line class="cls-4" x1="348.79" y1="68.12" x2="339.44" y2="68.12"/>
        <line class="cls-4" x1="279.45" y1="68.12" x2="270.1" y2="68.12"/>
      </g>
      <g>
        <line class="cls-4" x1="337.27" y1="95.94" x2="330.66" y2="89.33"/>
        <line class="cls-4" x1="288.23" y1="46.91" x2="281.62" y2="40.3"/>
      </g>
    </g>
  </g>
  <g id="Birds">
    <g>
      <g>
        <path class="cls-1" d="M364.87,195.22s4.62-1.15,6-.69c1.38,.46-.92,2.1-.92,2.1,0,0,1.15,.67,1.84,2.29,.69,1.62-2.3,.92-2.3,.92,0,0,.91,1.16,0,2.08s-5.08-3.69-5.08-3.69c0,0-3,1.85-5.77,1.62-2.77-.23-4.39-.92-6.23-3.69s-3.23-4.15-3.23-4.15l-1.85-.69,2.77-1.62s2.31-2.08,4.62-1.85c2.31,.23,3.23,.92,3.23,.92,0,0,1.38-3.69,3.46-5.08,2.08-1.39,8.54-3.23,10.62-4.39,2.08-1.15,1.62,.69,.92,1.85s-2.77,2.08-3.69,2.54c-.92,.46,4.85,.69,3.92,1.85s-4.39,1.62-4.39,1.62c0,0,3.23,1.15,2.54,2.08-.69,.92-3.46,.92-3.46,.92,0,0,.92,2.31-.46,2.31h-1.39s.69,3.23-1.15,2.77Z"/>
        <path class="cls-6" d="M357.94,188.76s-1.85-3.69-.92-6c.92-2.31,9.46-8.31,9.23-6-.23,2.31-2.54,3.69-2.54,3.69,0,0,3.46-1.15,3.46-.23v.92s-3.92,.92-5.77,2.54c-1.85,1.62-3.46,5.08-3.46,5.08Z"/>
        <circle class="cls-11" cx="352.54" cy="190.56" r=".69"/>
      </g>
      <path class="cls-5" d="M361.81,197.61c-.42,1.4-2.62,1.98-4.92,1.3s-3.83-2.37-3.41-3.77c.42-1.4,2.62-1.98,4.92-1.3,2.3,.68,3.83,2.37,3.41,3.77Z"/>
    </g>
    <g>
      <g>
        <path class="cls-1" d="M135.27,136.06s-4.62-1.15-6-.69c-1.38,.46,.92,2.1,.92,2.1,0,0-1.15,.67-1.84,2.29-.69,1.62,2.3,.92,2.3,.92,0,0-.91,1.16,0,2.08,.92,.92,5.08-3.69,5.08-3.69,0,0,3,1.85,5.77,1.62,2.77-.23,4.39-.92,6.23-3.69s3.23-4.15,3.23-4.15l1.85-.69-2.77-1.62s-2.31-2.08-4.62-1.85c-2.31,.23-3.23,.92-3.23,.92,0,0-1.38-3.69-3.46-5.08-2.08-1.39-8.54-3.23-10.62-4.39-2.08-1.15-1.62,.69-.92,1.85,.69,1.15,2.77,2.08,3.69,2.54,.92,.46-4.85,.69-3.92,1.85,.92,1.15,4.39,1.62,4.39,1.62,0,0-3.23,1.15-2.54,2.08s3.46,.92,3.46,.92c0,0-.92,2.31,.46,2.31h1.38s-.69,3.23,1.15,2.77Z"/>
        <path class="cls-6" d="M142.2,129.59s1.85-3.69,.92-6c-.92-2.31-9.46-8.31-9.23-6,.23,2.31,2.54,3.69,2.54,3.69,0,0-3.46-1.15-3.46-.23v.92s3.92,.92,5.77,2.54c1.85,1.62,3.46,5.08,3.46,5.08Z"/>
        <path class="cls-11" d="M146.91,131.39c0,.38,.31,.69,.69,.69s.69-.31,.69-.69-.31-.69-.69-.69-.69,.31-.69,.69Z"/>
      </g>
      <path class="cls-5" d="M138.33,138.45c.42,1.4,2.62,1.98,4.92,1.3,2.3-.68,3.83-2.37,3.41-3.77-.42-1.4-2.62-1.98-4.92-1.3s-3.83,2.37-3.41,3.77Z"/>
    </g>
  </g>
  <g id="Plants">
    <g>
      <g>
        <path class="cls-2" d="M122.88,307.97s-9.13-14.51-25.67-23.09c-16.54-8.58-23.59-17.05-15.01-16.54,10.41,.61,34,8.88,44.72,37.98,4.63,12.56-4.05,1.65-4.05,1.65"/>
        <path class="cls-4" d="M122.33,304.17s-8.27-16.54-23.89-24.51"/>
      </g>
      <g>
        <path class="cls-2" d="M132.82,318s-5.22-14.59-2.07-31.14c3.14-16.55,1.06-26.29-3.37-19.9-5.38,7.74-12.68,29.12,2.02,53,6.34,10.3,3.43-1.95,3.43-1.95"/>
        <path class="cls-4" d="M130.44,315.49s-7.14-15.12-4.07-30.67"/>
      </g>
      <g>
        <path class="cls-2" d="M123.55,300.67s-5.22-14.59-2.07-31.14c3.14-16.55,1.06-26.29-3.37-19.9-5.38,7.74-12.68,29.12,2.02,53,6.34,10.3,3.43-1.95,3.43-1.95"/>
        <path class="cls-4" d="M122.33,304.17s-8.3-21.13-5.23-36.68"/>
      </g>
    </g>
    <g>
      <g>
        <path class="cls-2" d="M331.2,289.89s9.13-14.51,25.67-23.09c16.54-8.58,23.59-17.05,15.01-16.54-10.42,.61-34,8.88-44.72,37.98-4.63,12.56,4.05,1.65,4.05,1.65"/>
        <path class="cls-4" d="M331.75,286.1s8.27-16.54,23.89-24.51"/>
      </g>
      <g>
        <path class="cls-2" d="M321.25,299.93s5.22-14.59,2.07-31.14c-3.14-16.55-1.06-26.29,3.37-19.9,5.38,7.74,12.68,29.12-2.02,53-6.34,10.3-3.43-1.95-3.43-1.95"/>
        <path class="cls-4" d="M323.64,297.42s7.14-15.12,4.07-30.67"/>
      </g>
      <g>
        <path class="cls-2" d="M330.52,282.59s5.22-14.59,2.07-31.14c-3.14-16.55-1.06-26.29,3.37-19.9,5.38,7.74,12.68,29.12-2.02,53-6.34,10.3-3.43-1.95-3.43-1.95"/>
        <path class="cls-4" d="M331.75,286.1s8.3-21.13,5.23-36.68"/>
      </g>
    </g>
  </g>
  <g id="House">
    <g>
      <polygon class="cls-6" points="335.36 238.14 240.3 238.14 187.12 153.58 282.18 153.58 335.36 238.14"/>
      <rect class="cls-7" x="129.64" y="235.24" width="97.43" height="86.06"/>
      <polygon class="cls-3" points="324.5 321.3 227.07 321.3 227.07 235.24 276.6 156.48 324.5 235.24 324.5 321.3"/>
      <g>
        <rect class="cls-7" x="238.44" y="250.66" width="9.74" height="29.23"/>
        <rect class="cls-6" x="248.18" y="250.66" width="9.74" height="29.23"/>
        <rect class="cls-7" x="257.93" y="250.66" width="9.74" height="29.23"/>
      </g>
      <g>
        <rect class="cls-8" x="195.41" y="250.66" width="8.12" height="29.23"/>
        <rect class="cls-6" x="203.53" y="250.66" width="8.12" height="29.23"/>
        <rect class="cls-8" x="211.65" y="250.66" width="8.12" height="29.23"/>
      </g>
      <g>
        <rect class="cls-8" x="135.33" y="250.66" width="8.12" height="29.23"/>
        <rect class="cls-6" x="143.45" y="250.66" width="8.12" height="29.23"/>
        <rect class="cls-8" x="151.57" y="250.66" width="8.12" height="29.23"/>
      </g>
      <g>
        <rect class="cls-7" x="287.97" y="250.66" width="9.74" height="29.23"/>
        <rect class="cls-6" x="297.71" y="250.66" width="9.74" height="29.23"/>
        <rect class="cls-7" x="307.45" y="250.66" width="9.74" height="29.23"/>
      </g>
      <g>
        <rect class="cls-7" x="268.48" y="202.76" width="6.5" height="17.86"/>
        <rect class="cls-6" x="274.98" y="202.76" width="6.5" height="17.86"/>
        <rect class="cls-7" x="281.47" y="202.76" width="6.5" height="17.86"/>
      </g>
      <polygon class="cls-1" points="124.22 238.14 228.84 238.14 282.02 153.58 177.4 153.58 124.22 238.14"/>
      <g>
        <rect class="cls-7" x="164.59" y="191.77" width="41.31" height="27.34"/>
        <polygon class="cls-3" points="205.91 191.77 234.46 172.17 205.91 219.12 205.91 191.77"/>
        <polygon class="cls-1" points="161.28 192.7 204.55 192.7 234.46 172.17 191.19 172.17 161.28 192.7"/>
      </g>
      <g>
        <rect class="cls-8" x="174.71" y="197.58" width="6.5" height="17.86"/>
        <rect class="cls-6" x="181.2" y="197.58" width="6.5" height="17.86"/>
        <rect class="cls-8" x="187.7" y="197.58" width="6.5" height="17.86"/>
      </g>
      <g>
        <polygon class="cls-3" points="256.84 140.75 253.2 140.75 253.2 167.28 256.84 161.42 256.84 140.75"/>
        <rect class="cls-7" x="242.63" y="140.75" width="10.74" height="26.53"/>
      </g>
      <g>
        <rect class="cls-6" x="165.86" y="255.58" width="25.01" height="65.72"/>
        <path class="cls-3" d="M189.54,288.36c0-1.22-.99-2.21-2.21-2.21s-2.21,.99-2.21,2.21,.99,2.21,2.21,2.21,2.21-.99,2.21-2.21Z"/>
      </g>
    </g>
  </g>
  <g id="Hand">
    <g>
      <g>
        <path class="cls-3" d="M124.49,307.55s-20.94-11.46-40.5-13.59c-19.56-2.13-30.87,6.98-30.78,10.94,.1,3.96,13.67,4.25,16.25,4.91,2.57,.66,18.3-3.68,41.52,1.83,23.21,5.52,26.18,6.65,26.18,6.65l-12.67-10.75Z"/>
        <path class="cls-3" d="M115.73,307.29s-21.85-9.62-41.52-10.05c-19.67-.44-30.16,9.61-29.72,13.55,.44,3.93,13.99,3.06,16.61,3.5,2.62,.44,17.92-5.24,41.52-1.75,23.6,3.5,26.66,4.37,26.66,4.37l-13.55-9.61Z"/>
        <path class="cls-3" d="M395.07,299.2l-30.34-8.22s-21.49-17.07-47.41-15.17c-25.92,1.9-49.31,12.01-56.9,17.7-7.59,5.69-17.07,11.38-18.97,12.64-1.9,1.26-27.82-5.69-41.72,0-13.91,5.69-24.66,17.07-24.66,17.07,0,0-58.79-17.7-73.33-20.23-14.54-2.53-31.61-1.26-43.62,7.59-12.01,8.85-9.48,14.54-3.16,15.8,6.32,1.26,7.59-5.06,42.36,4.43,34.77,9.48,77.13,34.14,94.2,43.62,17.07,9.48,45.52,22.76,64.48,17.07,18.97-5.69,70.8-25.29,82.82-25.29s50.57,2.53,50.57,2.53l5.69-69.54Z"/>
        <polygon class="cls-6" points="378.56 341.02 352.48 366.06 389.38 368.74 378.56 341.02"/>
        <path class="cls-4" d="M175.07,323.23s-5.87,7.72-3.4,17.72c1.53,6.18,8.74,4.81,21.85,2.19,13.11-2.62,.87-4.37,31.47-4.81,30.59-.44,63.37-1.31,65.12-1.31"/>
        <path class="cls-4" d="M174.85,344.67s.58-3.99,4.84-6.46c0,0,7.27-3.77,11.84-3.77s8.34,4.84,7,6.46"/>
        <line class="cls-4" x1="214.14" y1="337.13" x2="214.14" y2="331.75"/>
        <path class="cls-4" d="M216.83,326.64s.81,2.96,.27,7.54"/>
      </g>
      <path class="cls-1" d="M380.89,286.63h40.77v111.27h-40.77c-2.48,0-4.49-2.01-4.49-4.49v-102.3c0-2.48,2.01-4.49,4.49-4.49Z"/>
      <path class="cls-1" d="M422,280.91h72.19v125.68h-72.19c-1.88,0-3.41-1.53-3.41-3.41v-118.85c0-1.88,1.53-3.41,3.41-3.41Z"/>
    </g>
    <g>
      <line class="cls-2" x1="382.67" y1="296.82" x2="416.32" y2="296.82"/>
      <line class="cls-2" x1="415.87" y1="310.03" x2="381.66" y2="310.03"/>
      <line class="cls-2" x1="380.46" y1="334.03" x2="403.86" y2="334.03"/>
    </g>
    <line class="cls-2" x1="408.06" y1="334.03" x2="415.87" y2="334.03"/>
  </g>
</svg>